<svg width="234" height="85" viewBox="0 0 234 85" fill="currentColor" xmlns="http://www.w3.org/2000/svg">
<path d="M139.514 82.4626V1.95375L144.29 0V82.4626H139.514ZM155.337 82.4626V1.95375L160.113 0V82.4626H155.337ZM66.1591 50.4337L61.1027 47.5446C61.518 49.1242 61.788 50.5895 61.788 51.8678C61.788 57.729 60.5836 62.7381 58.154 66.895C55.7348 71.0623 52.4123 74.18 48.1865 76.2792C43.9503 78.3785 39.1327 79.4281 33.7129 79.4281C24.3165 79.4281 17.142 76.9651 12.1998 72.0496C7.24719 67.134 4.77608 58.9969 4.77608 47.6381C4.77608 36.9341 7.25757 29.1919 12.1998 24.4218C17.1524 19.6414 23.4963 17.2616 31.2314 17.2616C39.5377 17.2616 46.0788 19.2257 50.8549 23.1748C55.6206 27.1134 58.0086 33.2137 58.0086 41.4547C58.0086 41.4859 58.0086 41.5067 58.0086 41.5379L62.4629 39.4179C62.4629 39.3659 62.4629 39.3451 62.4629 39.2932C62.4629 33.3592 61.0716 28.3917 58.2786 24.3699C55.496 20.3481 51.7893 17.3655 47.169 15.4117C42.5487 13.458 37.513 12.4811 32.1036 12.4811C26.6941 12.4811 21.6273 13.9464 16.7059 16.877C11.7948 19.8077 7.77671 23.9438 4.67225 29.2958C1.55742 34.6478 0 40.7585 0 47.6278C0 59.9322 2.91756 69.0982 8.77346 75.1361C14.6293 81.174 22.8629 84.1981 33.4949 84.1981C40.4306 84.1981 46.3799 82.7848 51.3221 79.9685C56.2747 77.1522 60.0125 73.3694 62.5459 68.6305C65.0793 63.8916 66.3356 58.6332 66.3356 52.8447C66.3356 51.9821 66.2007 51.2547 66.1487 50.4441L66.1591 50.4337ZM126.618 22.9461C124.946 19.5063 122.154 16.9082 118.218 15.1311C114.273 13.3541 108.874 12.4707 102.011 12.4707C95.6462 12.4707 90.2264 13.645 85.7411 15.9937C81.2557 18.3423 77.8813 21.4185 75.6075 25.2116C73.3336 29.0048 72.1915 33.1513 72.1915 37.6304C72.1915 40.1661 72.5861 42.8265 73.3855 45.6013C73.697 46.6613 74.0293 47.7005 74.4134 48.7085C74.4238 48.7397 74.4446 48.7605 74.455 48.7917L79.771 49.145C79.7502 49.0931 79.7087 49.0411 79.6879 48.9891C79.2622 47.9811 78.878 46.9211 78.5458 45.8299C77.6425 42.8993 77.196 40.1661 77.196 37.6408C77.196 31.3535 79.4699 26.3756 84.0279 22.7175C88.5756 19.0698 94.4315 17.2408 101.585 17.2408C109.185 17.2408 114.875 18.5606 118.665 21.2002C122.455 23.8399 124.355 28.0903 124.355 33.9515C124.355 36.269 123.503 38.1604 121.8 39.6465C120.098 41.1326 117.627 42.4524 114.377 43.6059C111.127 44.7595 105.894 46.4222 98.6676 48.5942C98.6676 48.5942 84.111 52.8031 79.5841 54.9959C74.455 57.4796 72.4303 62.3328 72.4303 67.6952C72.4303 72.6108 73.9981 76.6118 77.1441 79.6775C80.2901 82.7536 84.6405 84.2917 90.2057 84.2917C103.724 84.2917 115.176 75.1049 124.562 56.7314L125.652 56.9496L123.804 82.5562H129.12V36.1131C129.12 30.7611 128.279 26.3652 126.628 22.9253L126.618 22.9461ZM124.344 53.9255C119.641 63.6214 114.678 70.2725 109.435 73.889C104.191 77.5055 98.1796 79.3138 91.3893 79.3138C86.9039 79.3138 83.4776 78.1706 81.0896 75.8947C78.7119 73.6188 77.5075 70.6362 77.5075 66.947C77.5075 64.3385 78.1097 62.1146 79.2934 60.2751C80.4874 58.4253 82.6158 56.7314 85.6891 55.1725C88.7625 53.6137 93.2271 52.0445 99.0829 50.4544C106.444 48.3552 111.895 46.5885 115.394 45.144C118.893 43.6995 121.582 42.1095 123.472 40.374L124.334 40.6961V53.9359L124.344 53.9255ZM227.923 49.3321C228.203 50.6207 228.411 51.899 228.411 53.1668C228.411 58.7371 227.258 63.5175 224.943 67.4978C222.628 71.478 219.503 74.4606 215.567 76.4455C211.622 78.4408 207.24 79.4281 202.392 79.4281C186.849 79.4281 177.639 72.4445 174.742 58.4877L231.007 43.4085C230.28 32.9227 227.196 25.1389 221.735 20.0779C216.284 15.0168 209.109 12.4811 200.222 12.4811C195.02 12.4811 190.015 13.9672 185.208 16.929C180.401 19.8908 176.497 24.0685 173.496 29.4621C170.496 34.8453 169.001 40.9767 169.001 47.846C169.001 60.0673 171.908 69.1917 177.722 75.188C183.547 81.1948 191.718 84.1981 202.277 84.1981C208.85 84.1981 214.456 82.8056 219.077 80.0204C223.697 77.2353 227.196 73.4733 229.543 68.7344C231.858 64.0475 233.021 58.8514 233.042 53.1357L227.913 49.3321H227.923ZM173.777 47.846C173.777 36.851 176.248 29.0048 181.2 24.2971C186.153 19.5998 192.445 17.2512 200.118 17.2512C207.344 17.2512 213.179 19.0178 217.623 22.5616C222.067 26.1054 224.87 32.1433 226.033 40.6857L174.213 54.788C173.922 52.8343 173.777 50.5272 173.777 47.846Z" fill="black"/>
</svg>
